<svg xmlns="http://www.w3.org/2000/svg" viewBox="0 0 256 195"><defs><style>.cls-1{fill:none;}.cls-2{fill:#06ac38;}</style></defs><g id="Capa_2" data-name="Capa 2"><g id="Capa_1-2" data-name="Capa 1"><rect class="cls-1" width="256" height="195"/><path class="cls-2" d="M69.06,11.9a18.25,18.25,0,0,1,1.87-.18c18.45,0,36.89-.11,55.33.12,12.41.15,24.58,1.59,35.85,7.68,14.71,8,22.38,20.37,24.35,36.69,1.47,12.19-.4,23.8-6.62,34.44-8,13.72-20.5,21.12-35.9,23.26-8.91,1.23-18,1.39-27,1.53-14.57.24-29.15.07-43.73.07H69.06ZM93.59,64c0,9.16,0,18.32,0,27.49,0,2,.33,3.1,2.68,3,12.24-.28,24.53.15,36.71-.81,13.2-1,26-7.62,28.28-24.4,2.38-17.51-3.52-32-24-34.59C123.7,33,109.9,33.79,96.25,33.41c-2.24-.06-2.71,1.07-2.7,3.09C93.63,45.67,93.59,54.83,93.59,64Z"/><path class="cls-2" d="M69.14,138.48H93.28V183.3H69.14Z"/></g></g></svg>